<?xml version="1.0" encoding="utf-8"?>
<svg viewBox="0 0 49 48" xmlns="http://www.w3.org/2000/svg">
  <path style="fill: rgb(187, 218, 246); stroke: rgb(187, 218, 246);" d="M 25.197 27.505 C 25.197 27.505 26.378893211535672 26.051423200428864 27.466 25.718 C 29.343445688218512 25.14217437123957 33.92959493427824 25.91255960412005 36.058 26.337 C 37.36740625051169 26.59811801568486 38.16593468618558 26.896340381585887 39.151 27.368 C 40.16168880333543 27.851928414320767 41.16505564920791 28.38994629998232 42.038 29.224 C 43.05236431241692 30.193173243597442 44.25530120873632 31.58348297947133 44.719 33.004 C 45.194907884527176 34.46191893986241 45.18588310810551 36.33290124160893 44.788 37.885 C 44.37358492969078 39.50158814607149 43.453045420988246 41.33353163188576 42.175 42.491 C 40.821516342289506 43.71678939279642 38.67269031240757 44.57491610529352 36.745 44.897 C 34.7414666398179 45.23175596348038 32.17968227858558 45.25035500974444 30.353 44.346 C 28.43735053365662 43.39759905906386 26.54470923540621 41.42279281988978 25.609 39.123 C 24.407931300303193 36.17100479974108 25.197 27.505 25.197 27.505 C 25.197 27.504999999999995 25.197 27.505 25.197 27.505"/>
  <path style="fill: rgb(239, 231, 186); stroke: rgb(239, 231, 186);" d="M 2.367 5.437 C 2.367 5.437 3.5488932115356775 3.9834232004288674 4.636 3.65 C 6.513445688218515 3.074174371239572 11.099594934278242 3.8445596041200494 13.228 4.269 C 14.537406250511689 4.530118015684857 15.335934686185585 4.828340381585887 16.321 5.3 C 17.33168880333542 5.783928414320768 18.335055649207924 6.321946299982324 19.208 7.156 C 20.222364312416918 8.12517324359744 21.425301208736315 9.515482979471333 21.889 10.936 C 22.364907884527167 12.39391893986241 22.355883108105516 14.264901241608943 21.958 15.817 C 21.543584929690795 17.4335881460715 20.62304542098826 19.26553163188577 19.345 20.423 C 17.991516342289508 21.64878939279642 15.842690312407575 22.50691610529353 13.915 22.829 C 11.911466639817904 23.163755963480376 9.349682278585579 23.18235500974445 7.523 22.278 C 5.607350533656624 21.329599059063874 3.7147092354062097 19.354792819889788 2.779 17.055 C 1.5779313003031947 14.103004799741077 2.367 5.437 2.367 5.437 C 2.367 5.437 2.3669999999999995 5.437 2.367 5.437" transform="matrix(-1, 0, 0, -1, 24.36413, 26.484476)"/>
  <path style="fill: rgb(237, 155, 149); stroke: rgb(237, 155, 149);" d="M 25.387 20.835 C 25.387 20.835 26.568893211535677 22.28857679957113 27.656 22.622 C 29.53344568821852 23.19782562876043 34.11959493427824 22.42744039587995 36.248 22.003 C 37.55740625051168 21.741881984315146 38.355934686185584 21.443659618414117 39.341 20.972 C 40.35168880333543 20.488071585679233 41.355055649207934 19.95005370001768 42.228 19.116 C 43.242364312416925 18.146826756402557 44.44530120873631 16.75651702052867 44.909 15.336 C 45.384907884527166 13.878081060137593 45.37588310810552 12.00709875839106 44.978 10.455 C 44.5635849296908 8.838411853928497 43.643045420988265 7.0064683681142315 42.365 5.849 C 41.01151634228951 4.62321060720358 38.86269031240757 3.765083894706469 36.935 3.443 C 34.931466639817906 3.108244036519623 32.36968227858558 3.089644990255553 30.543 3.994 C 28.62735053365661 4.942400940936125 26.73470923540621 6.917207180110209 25.799 9.217 C 24.59793130030319 12.168995200258921 25.387 20.835 25.387 20.835 C 25.386999999999997 20.834999999999997 25.387000000000004 20.835 25.387 20.835"/>
  <path style="fill: rgb(170, 85, 221); stroke: rgb(170, 85, 221);" d="M 2.284 43.22 C 2.284 43.22 3.4658932115356773 44.67357679957112 4.553 45.007 C 6.430445688218516 45.58282562876041 11.016594934278247 44.81244039587994 13.145 44.388 C 14.454406250511687 44.12688198431515 15.25293468618558 43.82865961841411 16.238 43.357 C 17.248688803335423 42.873071585679234 18.252055649207925 42.33505370001768 19.125 41.501 C 20.139364312416923 40.53182675640256 21.342301208736313 39.14151702052867 21.806 37.721 C 22.281907884527175 36.263081060137594 22.272883108105507 34.39209875839105 21.875 32.84 C 21.460584929690796 31.2234118539285 20.540045420988257 29.39146836811423 19.262 28.234 C 17.908516342289506 27.008210607203576 15.759690312407582 26.15008389470647 13.832 25.828 C 11.828466639817904 25.493244036519624 9.26668227858558 25.474644990255555 7.44 26.379 C 5.524350533656624 27.327400940936123 3.63170923540621 29.302207180110205 2.696 31.602 C 1.4949313003031945 34.55399520025892 2.284 43.22 2.284 43.22 C 2.284 43.22 2.284 43.22 2.284 43.22" transform="matrix(-1, 0, 0, -1, 24.198134, 70.829522)"/>
</svg>