<?xml version="1.0" encoding="utf-8"?>
<svg viewBox="0 0 415 138" xmlns="http://www.w3.org/2000/svg">
  <rect style="stroke: rgba(12, 67, 119, 0.15); fill: rgb(92, 110, 255);" x="211.971" y="64.541" width="36.292" height="26.414" rx="6" ry="6"/>
  <path style="stroke: rgb(220, 249, 254); fill-opacity: 0.96; paint-order: stroke; fill-rule: nonzero; fill: rgb(92, 110, 255);" d="M 2.382 134.411 C 2.382 134.411 24.281 121.818 34.318 114.271 C 44.722 106.447 54.998 97.456 63.568 88.112 C 72.021 78.896 79.317 67.194 85.483 58.643 C 90.168 52.147 94.033 45.246 97.565 41.356 C 99.618 39.094 100.622 37.614 103.224 36.47 C 106.634 34.97 112.254 35.548 117.141 34.466 C 122.867 33.198 128.929 31.098 135.339 28.954 C 142.732 26.481 151.162 23.625 158.891 20.311 C 166.871 16.889 177.066 11.687 182.443 8.66 C 185.42 6.984 186.879 5.678 189.099 4.421 C 191.156 3.257 192.916 1.86 195.275 1.329 C 197.912 0.737 202.468 0.455 204.31 1.423 C 205.69 2.147 206.222 3.705 206.483 5.17 C 206.816 7.037 206.805 9.346 205.225 11.822 C 202.189 16.58 189.991 24.21 183.266 28.966 C 177.986 32.701 170.599 38.874 168.524 38.398 C 167.671 38.202 168.029 36.828 167.405 35.974 C 166.523 34.766 164.915 32.941 163.255 32.074 C 161.674 31.249 159.814 30.741 157.761 30.774 C 155.104 30.817 151.889 31.683 148.675 33.245 C 143.87 35.581 138.521 40.7 133.019 45.206 C 126.415 50.613 114.302 60.711 111.981 63.673 C 111.354 64.472 110.891 65.183 111.127 65.373 C 111.455 65.64 113.498 64.815 115.155 63.973 C 118.621 62.213 125.03 57.578 129.683 53.773 C 134.661 49.703 139.779 43.278 143.966 40.174 C 146.642 38.19 148.729 36.734 151.29 35.974 C 153.594 35.29 156.7 35.035 158.494 35.474 C 159.778 35.788 160.541 36.532 161.411 37.346 C 162.449 38.317 163.531 39.607 164.085 41.069 C 164.752 42.83 165.13 45.253 164.62 47.312 C 164.062 49.566 162.35 51.632 160.476 53.993 C 158.022 57.084 154.41 60.359 150.582 63.959 C 145.753 68.499 135.943 75.973 133.563 78.905 C 132.718 79.946 132.647 80.093 132.273 81.253 C 131.366 84.071 132.193 91.96 130.554 96.393 C 129.123 100.265 126.873 103.397 123.82 106.603 C 120.336 110.263 114.958 114.385 110.208 116.814 C 106.116 118.907 101.355 118.905 97.457 120.922 C 93.337 123.054 89.243 126.827 86.28 129.49 C 84.023 131.519 84.41 133.83 80.836 135.241 C 70.217 139.434 2.382 134.411 2.382 134.411 C 2.382 134.411 2.382 134.411 2.382 134.411 C 2.382 134.411 2.382 134.411 2.382 134.411"/>
  <rect style="stroke: rgba(235, 188, 101, 0.28); fill: rgb(235, 188, 101);" x="171.521" y="64.41" width="36.292" height="26.414" rx="6" ry="6"/>
  <rect style="stroke: rgba(12, 67, 119, 0.15); fill: rgb(92, 110, 255);" x="-208.387" y="93.662" width="36.292" height="26.414" rx="6" ry="6" transform="matrix(-1, 0, 0, 1, 0, 0)"/>
  <rect style="stroke: rgba(235, 188, 101, 0.28); fill: rgb(235, 188, 101);" x="-248.837" y="93.531" width="36.292" height="26.414" rx="6" ry="6" transform="matrix(-1, 0, 0, 1, 0, 0)"/>
  <path style="stroke: rgb(220, 249, 254); fill-opacity: 0.96; paint-order: stroke; fill-rule: nonzero; fill: rgb(92, 110, 255);" d="M 209.596 3.617 C 209.596 3.617 231.495 16.21 241.532 23.757 C 251.936 31.581 262.212 40.572 270.782 49.916 C 279.235 59.132 286.531 70.834 292.697 79.385 C 297.382 85.881 301.247 92.782 304.779 96.672 C 306.832 98.934 307.836 100.414 310.438 101.558 C 313.848 103.058 319.468 102.48 324.355 103.562 C 330.081 104.83 336.143 106.93 342.553 109.074 C 349.946 111.547 358.376 114.403 366.105 117.717 C 374.085 121.139 384.28 126.341 389.657 129.368 C 392.634 131.044 394.093 132.35 396.313 133.607 C 398.37 134.771 400.13 136.168 402.489 136.699 C 405.126 137.291 409.682 137.573 411.524 136.605 C 412.904 135.881 413.436 134.323 413.697 132.858 C 414.03 130.991 414.019 128.682 412.439 126.206 C 409.403 121.448 397.205 113.818 390.48 109.062 C 385.2 105.327 377.813 99.154 375.738 99.63 C 374.885 99.826 375.243 101.2 374.619 102.054 C 373.737 103.262 372.129 105.087 370.469 105.954 C 368.888 106.779 367.028 107.287 364.975 107.254 C 362.318 107.211 359.103 106.345 355.889 104.783 C 351.084 102.447 345.735 97.328 340.233 92.822 C 333.629 87.415 321.516 77.317 319.195 74.355 C 318.568 73.556 318.105 72.845 318.341 72.655 C 318.669 72.388 320.712 73.213 322.369 74.055 C 325.835 75.815 332.244 80.45 336.897 84.255 C 341.875 88.325 346.993 94.75 351.18 97.854 C 353.856 99.838 355.943 101.294 358.504 102.054 C 360.808 102.738 363.914 102.993 365.708 102.554 C 366.992 102.24 367.755 101.496 368.625 100.682 C 369.663 99.711 370.745 98.421 371.299 96.959 C 371.966 95.198 372.344 92.775 371.834 90.716 C 371.276 88.462 369.564 86.396 367.69 84.035 C 365.236 80.944 361.624 77.669 357.796 74.069 C 352.967 69.529 343.157 62.055 340.777 59.123 C 339.932 58.082 339.861 57.935 339.487 56.775 C 338.58 53.957 339.407 46.068 337.768 41.635 C 336.337 37.763 334.087 34.631 331.034 31.425 C 327.55 27.765 322.172 23.643 317.422 21.214 C 313.33 19.121 308.569 19.123 304.671 17.106 C 300.551 14.974 296.457 11.201 293.494 8.538 C 291.237 6.509 291.624 4.198 288.05 2.787 C 277.431 -1.406 209.596 3.617 209.596 3.617 C 209.596 3.617 209.596 3.617 209.596 3.617 C 209.596 3.617 209.596 3.617 209.596 3.617" transform="matrix(-1, 0, 0, -1, 623.466989, 138.355807)"/>
</svg>