<?xml version="1.0" encoding="utf-8"?>
<svg viewBox="0 0 413 138" xmlns="http://www.w3.org/2000/svg">
  <defs>
    <linearGradient gradientUnits="userSpaceOnUse" x1="178.788" y1="145.714" x2="178.788" y2="335.212" id="gradient-0" gradientTransform="matrix(0.768881, -0.345442, 0.296363, 0.4426, -133.583771, 50.551129)">
      <stop offset="0" style="stop-color: rgba(2, 85, 163, 1)"/>
      <stop offset="1" style="stop-color: rgba(1, 33, 62, 1)"/>
    </linearGradient>
    <linearGradient gradientUnits="userSpaceOnUse" x1="178.788" y1="145.714" x2="178.788" y2="335.212" id="gradient-1" gradientTransform="matrix(0.768881, 0.345442, 0.296363, -0.4426, 73.63102, 87.965134)">
      <stop offset="0" style="stop-color: rgba(2, 85, 163, 1)"/>
      <stop offset="1" style="stop-color: rgba(1, 33, 62, 1)"/>
    </linearGradient>
  </defs>
  <rect style="fill: rgb(12, 67, 119); stroke: rgba(12, 67, 119, 0.15);" x="210.679" y="64.785" width="36.292" height="26.414" rx="6" ry="6"/>
  <path style="stroke: rgb(220, 249, 254); fill-opacity: 0.96; paint-order: stroke; fill-rule: nonzero; fill: url(#gradient-0);" d="M 1.09 134.655 C 1.09 134.655 22.989 122.062 33.026 114.515 C 43.43 106.691 53.706 97.7 62.276 88.356 C 70.729 79.14 78.025 67.438 84.191 58.887 C 88.876 52.391 92.741 45.49 96.273 41.6 C 98.326 39.338 99.33 37.858 101.932 36.714 C 105.342 35.214 110.962 35.792 115.849 34.71 C 121.575 33.442 127.637 31.342 134.047 29.198 C 141.44 26.725 149.87 23.869 157.599 20.555 C 165.579 17.133 175.774 11.931 181.151 8.904 C 184.128 7.228 185.587 5.922 187.807 4.665 C 189.864 3.501 191.624 2.104 193.983 1.573 C 196.62 0.981 201.176 0.699 203.018 1.667 C 204.398 2.391 204.93 3.949 205.191 5.414 C 205.524 7.281 205.513 9.59 203.933 12.066 C 200.897 16.824 188.699 24.454 181.974 29.21 C 176.694 32.945 169.307 39.118 167.232 38.642 C 166.379 38.446 166.737 37.072 166.113 36.218 C 165.231 35.01 163.623 33.185 161.963 32.318 C 160.382 31.493 158.522 30.985 156.469 31.018 C 153.812 31.061 150.597 31.927 147.383 33.489 C 142.578 35.825 137.229 40.944 131.727 45.45 C 125.123 50.857 113.01 60.955 110.689 63.917 C 110.062 64.716 109.599 65.427 109.835 65.617 C 110.163 65.884 112.206 65.059 113.863 64.217 C 117.329 62.457 123.738 57.822 128.391 54.017 C 133.369 49.947 138.487 43.522 142.674 40.418 C 145.35 38.434 147.437 36.978 149.998 36.218 C 152.302 35.534 155.408 35.279 157.202 35.718 C 158.486 36.032 159.249 36.776 160.119 37.59 C 161.157 38.561 162.239 39.851 162.793 41.313 C 163.46 43.074 163.838 45.497 163.328 47.556 C 162.77 49.81 161.058 51.876 159.184 54.237 C 156.73 57.328 153.118 60.603 149.29 64.203 C 144.461 68.743 134.651 76.217 132.271 79.149 C 131.426 80.19 131.355 80.337 130.981 81.497 C 130.074 84.315 130.901 92.204 129.262 96.637 C 127.831 100.509 125.581 103.641 122.528 106.847 C 119.044 110.507 113.666 114.629 108.916 117.058 C 104.824 119.151 100.063 119.149 96.165 121.166 C 92.045 123.298 87.951 127.071 84.988 129.734 C 82.731 131.763 83.118 134.074 79.544 135.485 C 68.925 139.678 1.09 134.655 1.09 134.655 C 1.09 134.655 1.09 134.655 1.09 134.655 C 1.09 134.655 1.09 134.655 1.09 134.655"/>
  <rect style="stroke: rgba(235, 188, 101, 0.28); fill: rgb(235, 188, 101);" x="170.229" y="64.654" width="36.292" height="26.414" rx="6" ry="6"/>
  <rect style="fill: rgb(12, 67, 119); stroke: rgba(12, 67, 119, 0.15);" x="-207.095" y="93.906" width="36.292" height="26.414" rx="6" ry="6" transform="matrix(-1, 0, 0, 1, 0, 0)"/>
  <rect style="stroke: rgba(235, 188, 101, 0.28); fill: rgb(235, 188, 101);" x="-247.545" y="93.775" width="36.292" height="26.414" rx="6" ry="6" transform="matrix(-1, 0, 0, 1, 0, 0)"/>
  <path style="stroke: rgb(220, 249, 254); fill-opacity: 0.96; paint-order: stroke; fill-rule: nonzero; fill: url(#gradient-1);" d="M 208.304 3.861 C 208.304 3.861 230.203 16.454 240.24 24.001 C 250.644 31.825 260.92 40.816 269.49 50.16 C 277.943 59.376 285.239 71.078 291.405 79.629 C 296.09 86.125 299.955 93.026 303.487 96.916 C 305.54 99.178 306.544 100.658 309.146 101.802 C 312.556 103.302 318.176 102.724 323.063 103.806 C 328.789 105.074 334.851 107.174 341.261 109.318 C 348.654 111.791 357.084 114.647 364.813 117.961 C 372.793 121.383 382.988 126.585 388.365 129.612 C 391.342 131.288 392.801 132.594 395.021 133.851 C 397.078 135.015 398.838 136.412 401.197 136.943 C 403.834 137.535 408.39 137.817 410.232 136.849 C 411.612 136.125 412.144 134.567 412.405 133.102 C 412.738 131.235 412.727 128.926 411.147 126.45 C 408.111 121.692 395.913 114.062 389.188 109.306 C 383.908 105.571 376.521 99.398 374.446 99.874 C 373.593 100.07 373.951 101.444 373.327 102.298 C 372.445 103.506 370.837 105.331 369.177 106.198 C 367.596 107.023 365.736 107.531 363.683 107.498 C 361.026 107.455 357.811 106.589 354.597 105.027 C 349.792 102.691 344.443 97.572 338.941 93.066 C 332.337 87.659 320.224 77.561 317.903 74.599 C 317.276 73.8 316.813 73.089 317.049 72.899 C 317.377 72.632 319.42 73.457 321.077 74.299 C 324.543 76.059 330.952 80.694 335.605 84.499 C 340.583 88.569 345.701 94.994 349.888 98.098 C 352.564 100.082 354.651 101.538 357.212 102.298 C 359.516 102.982 362.622 103.237 364.416 102.798 C 365.7 102.484 366.463 101.74 367.333 100.926 C 368.371 99.955 369.453 98.665 370.007 97.203 C 370.674 95.442 371.052 93.019 370.542 90.96 C 369.984 88.706 368.272 86.64 366.398 84.279 C 363.944 81.188 360.332 77.913 356.504 74.313 C 351.675 69.773 341.865 62.299 339.485 59.367 C 338.64 58.326 338.569 58.179 338.195 57.019 C 337.288 54.201 338.115 46.312 336.476 41.879 C 335.045 38.007 332.795 34.875 329.742 31.669 C 326.258 28.009 320.88 23.887 316.13 21.458 C 312.038 19.365 307.277 19.367 303.379 17.35 C 299.259 15.218 295.165 11.445 292.202 8.782 C 289.945 6.753 290.332 4.442 286.758 3.031 C 276.139 -1.162 208.304 3.861 208.304 3.861 C 208.304 3.861 208.304 3.861 208.304 3.861 C 208.304 3.861 208.304 3.861 208.304 3.861" transform="matrix(-1, 0, 0, -1, 620.883066, 138.843813)"/>
</svg>